# xmcd
#
# Track frame offsets: 
#        150
#        13667
#        30550
#        44905
#        60666
#        77538
#        90870
#        107459
#        121466
#        135193
#        154922
#        170522
#
# Disc length: 2512 seconds
#
# Revision: 1
# Processed by: cddbd v1.5.2PL0 Copyright (c) Steve Scherf et al.
# Submitted via: ExactAudioCopy v1.0b3
#
DISCID=8b09ce0c
DTITLE=Nikki Jean - Pennies In A Jar
DYEAR=2011
DGENRE=Soul
TTITLE0=How To Unring A Bell
TTITLE1=Steel And Feathers (Don't Ever)
TTITLE2=La Di Da Di Da
TTITLE3=My Love
TTITLE4=Pennies In A Jar
TTITLE5=What's A Girl Supposed To Do
TTITLE6=Rockaway
TTITLE7=Million Star Motel
TTITLE8=Patty Crash
TTITLE9=China
TTITLE10=Mercy Of Love
TTITLE11=Sex, Lies and Sunsine
EXTD=
EXTT0=
EXTT1=
EXTT2=
EXTT3=
EXTT4=
EXTT5=
EXTT6=
EXTT7=
EXTT8=
EXTT9=
EXTT10=
EXTT11=
PLAYORDER=
